<svg width="103" height="24" viewBox="0 0 103 24" fill="none" xmlns="http://www.w3.org/2000/svg">
<path d="M9.192 23H0.68V22.132L3.312 20.06V3.092L0.4 2.112L0.96 0.992H9.472V1.86L6.812 3.932V20.872L9.752 21.88L9.192 23ZM25.1406 0.431998C26.13 0.431998 27.2686 0.571999 28.5566 0.852C29.8633 1.132 30.8153 1.43067 31.4126 1.748V7.18H30.3486C28.6313 4.24933 26.354 2.784 23.5166 2.784C22.2846 2.784 21.1553 3.148 20.1286 3.876C19.1206 4.58533 18.3273 5.584 17.7486 6.872C17.17 8.14133 16.8806 9.56933 16.8806 11.156C16.8806 12.9853 17.1606 14.656 17.7206 16.168C18.2993 17.68 19.1673 18.8933 20.3246 19.808C21.5006 20.7227 22.9473 21.18 24.6646 21.18C26.2513 21.18 28.5286 19.9853 31.4966 17.596L32.3366 18.94L27.1846 22.944C26.494 23.1867 25.822 23.3453 25.1686 23.42C24.534 23.5133 23.8433 23.56 23.0966 23.56C21.1366 23.56 19.4006 23.084 17.8886 22.132C16.3766 21.18 15.2006 19.8733 14.3606 18.212C13.5206 16.532 13.1006 14.628 13.1006 12.5C13.1006 10.316 13.7353 8.3 15.0046 6.452C16.274 4.58533 17.8513 3.12 19.7366 2.056C21.622 0.973332 23.4233 0.431998 25.1406 0.431998ZM48.1094 0.431998C50.088 0.431998 51.8334 0.907998 53.3454 1.86C54.876 2.812 56.0614 4.128 56.9014 5.808C57.7414 7.488 58.1614 9.392 58.1614 11.52C58.1614 13.704 57.5267 15.72 56.2574 17.568C54.988 19.416 53.4107 20.8813 51.5254 21.964C49.64 23.028 47.8387 23.56 46.1214 23.56C44.1427 23.56 42.388 23.0933 40.8574 22.16C39.3454 21.208 38.1694 19.892 37.3294 18.212C36.4894 16.532 36.0694 14.628 36.0694 12.5C36.0694 10.316 36.704 8.3 37.9734 6.452C39.2427 4.58533 40.82 3.12 42.7054 2.056C44.5907 0.973332 46.392 0.431998 48.1094 0.431998ZM46.4854 2.784C45.2534 2.784 44.124 3.148 43.0974 3.876C42.0894 4.58533 41.296 5.584 40.7174 6.872C40.1387 8.14133 39.8494 9.56933 39.8494 11.156C39.8494 12.9853 40.1387 14.6653 40.7174 16.196C41.296 17.708 42.1734 18.9213 43.3494 19.836C44.544 20.7507 46.0094 21.208 47.7454 21.208C48.9774 21.208 50.0974 20.8533 51.1054 20.144C52.132 19.416 52.9347 18.4173 53.5134 17.148C54.092 15.86 54.3814 14.4227 54.3814 12.836C54.3814 10.988 54.092 9.308 53.5134 7.796C52.9347 6.26533 52.0574 5.052 50.8814 4.156C49.7054 3.24133 48.24 2.784 46.4854 2.784ZM80.8053 3.96V23.028H79.2653L65.9653 6.2V20.424L68.9053 21.908L68.3453 23.028H61.7933V22.16L64.4253 20.088V3.68L61.5133 2.112L62.0733 0.992H66.3013L79.2653 17.4V3.568L76.3533 2.112L76.9133 0.992H83.4653V1.888L80.8053 3.96ZM98.6419 18.044C98.6419 17.4653 98.4086 16.924 97.9419 16.42C97.4753 15.916 96.8873 15.4587 96.1779 15.048C95.4873 14.6187 94.5446 14.096 93.3499 13.48C91.9313 12.7333 90.7926 12.0987 89.9339 11.576C89.0753 11.0347 88.3379 10.4 87.7219 9.672C87.1246 8.944 86.8259 8.14133 86.8259 7.264C86.8259 6.33067 87.2179 5.332 88.0019 4.268C88.7859 3.18533 89.7379 2.28 90.8579 1.552C91.9966 0.805332 93.0419 0.431998 93.9939 0.431998C95.1513 0.431998 96.4953 0.571999 98.0259 0.852C99.5566 1.132 100.677 1.43067 101.386 1.748V7.18H100.322C99.4073 5.668 98.3993 4.492 97.2979 3.652C96.2153 2.812 95.0766 2.392 93.8819 2.392C92.8179 2.392 91.9686 2.728 91.3339 3.4C90.7179 4.05333 90.4099 4.912 90.4099 5.976C90.4099 6.592 90.6433 7.17067 91.1099 7.712C91.5953 8.23467 92.1833 8.70133 92.8739 9.112C93.5833 9.52267 94.5633 10.0547 95.8139 10.708C97.1953 11.3987 98.3153 12.0147 99.1739 12.556C100.033 13.0787 100.751 13.6947 101.33 14.404C101.927 15.0947 102.226 15.8787 102.226 16.756C102.226 17.6893 101.806 18.6973 100.966 19.78C100.126 20.844 99.0993 21.7493 97.8859 22.496C96.6913 23.224 95.5993 23.588 94.6099 23.588C93.3966 23.588 91.9499 23.448 90.2699 23.168C88.6086 22.888 87.4139 22.5893 86.6859 22.272V16.84H87.7499C88.7019 18.352 89.7846 19.528 90.9979 20.368C92.2113 21.208 93.4619 21.628 94.7499 21.628C95.5153 21.628 96.1966 21.46 96.7939 21.124C97.3913 20.788 97.8486 20.3493 98.1659 19.808C98.4833 19.248 98.6419 18.66 98.6419 18.044Z" fill="black"/>
</svg>
